<?xml version="1.0" encoding="utf-8"?>
<!-- Generator: Adobe Illustrator 16.0.4, SVG Export Plug-In . SVG Version: 6.00 Build 0)  -->
<!DOCTYPE svg PUBLIC "-//W3C//DTD SVG 1.1//EN" "http://www.w3.org/Graphics/SVG/1.1/DTD/svg11.dtd">
<svg version="1.1" id="Layer_1" xmlns="http://www.w3.org/2000/svg" xmlns:xlink="http://www.w3.org/1999/xlink" x="0px" y="0px"
	 width="391.796px" height="66.039px" viewBox="284.415 376.598 391.796 66.039"
	 enable-background="new 284.415 376.598 391.796 66.039" xml:space="preserve">
<g>
	<g>
		<g>
			<path fill="#1C75B9" d="M423.729,410.824c-0.356-6.029-0.836-13.435-0.836-17.854h-0.118c-1.492,4.358-3.104,9.018-5.436,15.046
				l-8.479,21.854h-1.971l-7.94-21.375c-2.271-6.271-4-11.105-5.194-15.523h-0.119c-0.12,4.717-0.418,11.702-0.896,18.39
				l-1.254,18.51h-2.808l2.928-40.242h3.281l8.658,23.228c1.91,5.074,3.284,9.135,4.418,13.018h0.181
				c1.016-3.703,2.446-7.584,4.479-13.018l9.016-23.228h3.404l2.688,40.242h-2.809L423.729,410.824z"/>
			<path fill="#1C75B9" d="M454.536,423.064c0,2.27,0.061,4.598,0.418,6.807h-2.627l-0.418-4.119h-0.119
				c-1.433,2.21-4.598,4.777-9.195,4.777c-5.791,0-8.419-4.062-8.419-7.883c0-6.629,5.792-10.629,17.495-10.51v-0.775
				c0-2.807-0.538-8.479-7.345-8.418c-2.508,0-5.135,0.656-7.226,2.148l-0.896-2.09c2.627-1.73,5.853-2.448,8.419-2.448
				c8.3,0,9.911,6.209,9.911,11.285L454.536,423.064L454.536,423.064z M451.671,414.527c-6.27-0.182-14.509,0.774-14.509,7.643
				c0,4.119,2.746,5.971,5.73,5.971c4.775,0,7.522-2.926,8.479-5.731c0.239-0.597,0.299-1.254,0.299-1.73V414.527L451.671,414.527z"
				/>
			<path fill="#1C75B9" d="M463.729,409.81c0-2.865-0.061-5.792-0.237-8.598h2.627l0.119,5.792h0.18
				c1.254-3.643,4.239-6.448,8.12-6.448c0.418,0,0.836,0.061,1.194,0.119v2.688c-0.419-0.061-0.837-0.061-1.374-0.061
				c-3.94,0-6.747,3.403-7.522,8c-0.18,0.836-0.239,1.791-0.239,2.747v15.822h-2.864L463.729,409.81L463.729,409.81z"/>
			<path fill="#1C75B9" d="M484.686,415.004h0.118c0.719-0.896,1.854-2.209,2.747-3.164l10.15-10.628h3.463l-11.583,11.881
				l13.195,16.778h-3.464l-11.701-15.045l-2.926,3.104v11.941h-2.866v-42.453h2.866V415.004L484.686,415.004z"/>
			<path fill="#1C75B9" d="M508.206,415.244c0,9.135,5.016,12.775,10.927,12.775c4.182,0,6.329-0.836,7.941-1.611l0.716,2.209
				c-1.074,0.598-4,1.852-9.016,1.852c-8.239,0-13.374-5.971-13.374-14.389c0-9.555,5.492-15.524,12.896-15.524
				c9.374,0,11.165,8.837,11.165,12.956c0,0.775,0,1.193-0.119,1.732H508.206L508.206,415.244z M526.477,412.974
				c0.062-4-1.61-10.029-8.537-10.029c-6.329,0-9.018,5.611-9.555,10.029H526.477z"/>
			<path fill="#1C75B9" d="M540.686,394.883v6.329h8.181v2.329h-8.181v18.629c0,3.643,1.135,5.91,4.181,5.91
				c1.492,0,2.566-0.18,3.283-0.418l0.356,2.148c-0.955,0.358-2.269,0.656-4,0.656c-2.09,0-3.82-0.656-4.896-1.97
				c-1.313-1.493-1.791-3.941-1.791-6.866v-18.093h-4.836v-2.328h4.836v-5.254L540.686,394.883z"/>
			<path fill="#1C75B9" d="M555.133,410.347c0-3.583-0.06-6.39-0.236-9.136h2.745l0.181,5.436h0.119
				c2.09-3.763,5.61-6.091,10.628-6.091c7.344,0,12.3,6.091,12.3,14.51c0,10.21-6.09,15.465-13.019,15.465
				c-4.117,0-7.762-1.853-9.73-5.313H558v16.479h-2.866L555.133,410.347L555.133,410.347z M557.999,418.586
				c0,0.775,0.061,1.553,0.239,2.271c1.191,4.418,5.015,7.283,9.434,7.283c6.567,0,10.329-5.312,10.329-12.957
				c0-6.447-3.582-12.238-10.091-12.238c-4.179,0-8.239,2.864-9.493,7.582c-0.179,0.775-0.418,1.672-0.418,2.447V418.586z"/>
			<path fill="#1C75B9" d="M588.148,387.418h2.865v42.453h-2.865V387.418z"/>
			<path fill="#1C75B9" d="M618.657,423.064c0,2.27,0.061,4.598,0.418,6.807h-2.627l-0.418-4.119h-0.119
				c-1.434,2.21-4.599,4.777-9.195,4.777c-5.791,0-8.419-4.062-8.419-7.883c0-6.629,5.792-10.629,17.495-10.51v-0.775
				c0-2.807-0.538-8.479-7.345-8.418c-2.508,0-5.136,0.656-7.227,2.148l-0.896-2.09c2.627-1.73,5.852-2.448,8.419-2.448
				c8.3,0,9.911,6.209,9.911,11.285L618.657,423.064L618.657,423.064z M615.792,414.527c-6.271-0.182-14.509,0.774-14.509,7.643
				c0,4.119,2.746,5.971,5.73,5.971c4.775,0,7.522-2.926,8.479-5.731c0.239-0.597,0.299-1.254,0.299-1.73V414.527L615.792,414.527z"
				/>
			<path fill="#1C75B9" d="M647.674,428.617c-1.254,0.598-4.238,1.852-8.419,1.852c-8.238,0-13.73-6.029-13.73-14.628
				c0-9.136,6.209-15.285,14.747-15.285c3.521,0,6.447,1.016,7.521,1.791l-1.015,2.329c-1.373-0.836-3.583-1.672-6.747-1.672
				c-7.702,0-11.645,5.853-11.645,12.598c0,7.523,4.719,12.421,11.346,12.421c3.401,0,5.61-0.956,7.164-1.673L647.674,428.617z"/>
			<path fill="#1C75B9" d="M654.956,415.244c0,9.135,5.016,12.775,10.927,12.775c4.182,0,6.329-0.836,7.941-1.611l0.716,2.209
				c-1.074,0.598-4,1.852-9.016,1.852c-8.239,0-13.374-5.971-13.374-14.389c0-9.555,5.492-15.524,12.896-15.524
				c9.374,0,11.165,8.837,11.165,12.956c0,0.775,0,1.193-0.119,1.732H654.956L654.956,415.244z M673.227,412.974
				c0.062-4-1.61-10.029-8.537-10.029c-6.329,0-9.018,5.611-9.555,10.029H673.227z"/>
		</g>
	</g>
	<path fill="#1C75B9" d="M316.42,400.564h-8.026v-7.938h8.026V400.564L316.42,400.564z M316.42,390.598h-8.026V382.6h8.026V390.598
		L316.42,390.598z M326.422,400.564h-8.001v-7.938h8.001V400.564z M326.422,390.598h-8.001V382.6h8.001V390.598z M336.42,390.598
		h-7.999V382.6h7.999V390.598z M352.42,402.125v-23.543c0-0.748-1.206-1.984-1.955-1.984h-46.121c-0.749,0-1.923,1.236-1.923,1.984
		v23.513l5.972,2.618v-2.084h8.026v5.605l10.985,4.375l4.799-2.013h-3.783v-7.971h7.999v6.203l2.001-0.838v-5.365h7.997v2.013
		L352.42,402.125z M346.418,400.564h-7.997v-7.938h7.997V400.564z"/>
	<path fill="#1C75B9" d="M326.422,442.637v-24.921l-9.223,9.161l-20.792-9.285v13.023L326.422,442.637z"/>
	<path fill="#1C75B9" d="M326.433,414.631l-9.271,9.355l-30.779-13.385l10.072-7.927L326.433,414.631z"/>
	<path fill="#1C75B9" d="M300.402,398.64v-12.523l-15.987,6.553l12.055,7.988L300.402,398.64z"/>
	<path fill="#1C75B9" d="M300.4,400.576l-2.379,1.131l2.412,0.927L300.4,400.576z"/>
	<path fill="#1C75B9" d="M328.39,442.637v-24.921l9.225,9.161l20.792-9.285v13.023L328.39,442.637z"/>
	<path fill="#1C75B9" d="M328.377,414.631l9.271,9.355l30.777-13.385l-10.07-7.927L328.377,414.631z"/>
	<path fill="#1C75B9" d="M354.409,398.64v-12.523l15.987,6.553l-12.057,7.988L354.409,398.64z"/>
	<path fill="#1C75B9" d="M354.411,400.576l2.625,1.027l-2.626,1.029L354.411,400.576z"/>
</g>
</svg>
